<?xml version="1.0" encoding="UTF-8" standalone="no"?>
<!DOCTYPE svg PUBLIC "-//W3C//DTD SVG 1.1//EN" "http://www.w3.org/Graphics/SVG/1.1/DTD/svg11.dtd">
<svg width="100%" height="100%" viewBox="0 0 741 741" version="1.1" xmlns="http://www.w3.org/2000/svg" xmlns:xlink="http://www.w3.org/1999/xlink" xml:space="preserve" xmlns:serif="http://www.serif.com/" style="fill-rule:evenodd;clip-rule:evenodd;stroke-linejoin:round;stroke-miterlimit:2;">
    <g transform="matrix(1,0,0,1,0,188.609)">
        <g transform="matrix(1,0,0,1,0.3125,0)">
            <path d="M698.063,0.781L42.296,0.781C18.968,0.781 0,19.766 0,43.094L0,320.695C0,344.023 18.968,363 42.296,363L698.063,363C721.391,363 740.375,344.023 740.375,320.695L740.375,43.094C740.375,19.766 721.391,0.781 698.063,0.781Z" style="fill:rgb(230,185,30);fill-rule:nonzero;"/>
        </g>
        <g transform="matrix(1,0,0,1,0,-1.2305)">
            <rect x="106.602" y="77.492" width="54.789" height="211.258" style="fill:rgb(1,1,1);"/>
        </g>
        <g transform="matrix(1,0,0,1,0,-1.2305)">
            <path d="M278.328,77.492L265.633,176.211L257.844,122.554C255.492,105.351 253.344,90.297 251.195,77.492L180.125,77.492L180.125,288.75L228.148,288.75L228.359,149.281L248.531,288.75L282.734,288.75L301.984,146.211L302.086,288.75L350,288.75L350,77.492L278.328,77.492Z" style="fill:rgb(1,1,1);"/>
        </g>
        <g transform="matrix(1,0,0,1,0,-1.2305)">
            <path d="M435.719,115.594C437.859,116.82 439.305,118.773 439.922,121.531C440.531,124.195 440.844,130.336 440.844,139.859L440.844,221.672C440.844,235.812 439.922,244.414 438.07,247.594C436.234,250.765 431.422,252.297 423.531,252.297L423.531,113.656C429.469,113.656 433.563,114.265 435.719,115.594ZM435.203,288.75C448.313,288.75 458.141,288.031 464.703,286.601C471.141,285.172 476.68,282.711 481.078,279.023C485.484,275.429 488.664,270.422 490.398,264.07C492.242,257.726 493.266,245.031 493.266,226.086L493.266,151.945C493.266,131.976 492.445,118.562 491.32,111.703C490.094,104.945 487.023,98.696 482.102,93.172C477.289,87.633 470.125,83.641 460.805,81.196C451.484,78.735 436.125,77.492 409.602,77.492L368.742,77.492L368.742,288.75L435.203,288.75Z" style="fill:rgb(1,1,1);"/>
        </g>
        <g transform="matrix(1,0,0,1,0,-2.613)">
            <path d="M583.281,237.554C583.281,247.695 582.766,254.242 581.742,256.906C580.719,259.57 576.313,260.891 572.93,260.891C569.664,260.891 567.5,259.672 566.383,257.016C565.359,254.453 564.742,248.515 564.742,239.195L564.742,183.383C564.742,173.75 565.25,167.812 566.18,165.351C567.203,163 569.352,161.773 572.523,161.773C575.898,161.773 580.398,163.211 581.539,165.875C582.664,168.633 583.281,174.476 583.281,183.383L583.281,237.554ZM511.898,77.492L511.898,288.75L561.266,288.75L564.742,275.336C569.141,280.765 574.063,284.75 579.484,287.523C584.922,290.179 592.898,291.515 599.141,291.515C607.75,291.515 615.32,289.265 621.57,284.656C627.922,280.156 631.922,274.726 633.563,268.57C635.305,262.336 636.125,252.914 636.125,240.312L636.125,181.031C636.125,168.234 635.914,159.929 635.305,156.047C634.781,152.156 633.039,148.156 630.281,144.054C627.414,139.961 623.422,136.797 618.094,134.531C612.664,132.281 606.422,131.156 599.141,131.156C592.898,131.156 584.813,132.39 579.383,134.953C574.063,137.406 569.141,141.195 564.742,146.211L564.742,77.492L511.898,77.492Z" style="fill:rgb(1,1,1);"/>
        </g>
    </g>
</svg>
